<?xml version="1.0" encoding="UTF-8" standalone="no"?>
<!-- Created with Inkscape (http://www.inkscape.org/) -->

<svg
   width="85.619156mm"
   height="57.070625mm"
   viewBox="0 0 85.619156 57.070625"
   version="1.1"
   id="svg1"
   xmlns:inkscape="http://www.inkscape.org/namespaces/inkscape"
   xmlns:sodipodi="http://sodipodi.sourceforge.net/DTD/sodipodi-0.dtd"
   xmlns="http://www.w3.org/2000/svg"
   xmlns:svg="http://www.w3.org/2000/svg">
  <sodipodi:namedview
     id="namedview1"
     pagecolor="#505050"
     bordercolor="#eeeeee"
     borderopacity="1"
     inkscape:showpageshadow="0"
     inkscape:pageopacity="0"
     inkscape:pagecheckerboard="0"
     inkscape:deskcolor="#505050"
     inkscape:document-units="mm" />
  <defs
     id="defs1" />
  <g
     inkscape:label="Layer 1"
     inkscape:groupmode="layer"
     id="layer1"
     transform="translate(-57.387327,-11.311191)">
    <g
       id="g75"
       transform="matrix(0.26458333,0,0,0.26458333,-116.94663,-11.416516)"
       inkscape:export-filename="g75.svg"
       inkscape:export-xdpi="96"
       inkscape:export-ydpi="96">
		<g
   class="st16"
   id="g73"
   style="opacity:0.5">
			<path
   class="st15"
   d="m 982.5,301.6 c -54.1,0 -47.5,-215.7 -80.9,-215.7 -33.4,0 -26.8,215.7 -80.9,215.7 -54.1,0 -47.5,-215.7 -80.9,-215.7 -33.4,0 -26.8,215.7 -80.9,215.7 z"
   id="path72"
   style="fill:#8dc63f" />

		</g>

		<path
   class="st17"
   d="m 982.5,301.6 c -34.3,0 -38.8,-95.2 -75.8,-95.2 -37,0 -41.6,95.2 -75.8,95.2 -38.8,0 -44,-107.9 -85.9,-107.9 -41.9,0 -47.1,107.9 -85.9,107.9 z"
   id="path73"
   style="opacity:0.5;fill:#ec008c" />

		<path
   class="st18"
   d="m 982.5,301.6 c -24.6,0 -24.6,-45.2 -47.5,-45.2 -22.8,0 -25,45.2 -49.6,45.2 -24.6,0 -41.9,-97.1 -64.7,-97.1 -22.8,0 -40.1,97.1 -64.7,97.1 -24.6,0 -26.8,-45.2 -49.6,-45.2 -22.8,0 -22.9,45.2 -47.5,45.2 z"
   id="path74"
   style="opacity:0.5;fill:#92278f" />

		<path
   class="st19"
   d="M 982.5,301.6 C 874.4,301.6 887.5,129 820.7,129 753.9,129 767,301.6 658.9,301.6 Z"
   id="path75"
   style="opacity:0.5;fill:#03bfd7" />

	</g>
  </g>
</svg>
